<?xml version="1.0" encoding="UTF-8" standalone="no"?>
<!-- Created with Inkscape (http://www.inkscape.org/) -->

<svg
   xmlns:dc="http://purl.org/dc/elements/1.1/"
   xmlns:cc="http://creativecommons.org/ns#"
   xmlns:rdf="http://www.w3.org/1999/02/22-rdf-syntax-ns#"
   xmlns:svg="http://www.w3.org/2000/svg"
   xmlns="http://www.w3.org/2000/svg"
   xmlns:sodipodi="http://sodipodi.sourceforge.net/DTD/sodipodi-0.dtd"
   xmlns:inkscape="http://www.inkscape.org/namespaces/inkscape"
   version="1.1"
   id="svg29"
   xml:space="preserve"
   width="484"
   height="284"
   viewBox="0 0 484 284"
   sodipodi:docname="Копия logoVucaViaNew.pdf"
   inkscape:version="0.92.3 (2405546, 2018-03-11)"><metadata
     id="metadata35"><rdf:RDF><cc:Work
         rdf:about=""><dc:format>image/svg+xml</dc:format><dc:type
           rdf:resource="http://purl.org/dc/dcmitype/StillImage" /><dc:title></dc:title></cc:Work></rdf:RDF></metadata><defs
     id="defs33"><clipPath
       clipPathUnits="userSpaceOnUse"
       id="clipPath49"><path
         d="M 0,213 H 363 V 0 H 0 Z"
         id="path47"
         inkscape:connector-curvature="0" /></clipPath></defs><sodipodi:namedview
     pagecolor="#ffffff"
     bordercolor="#666666"
     borderopacity="1"
     objecttolerance="10"
     gridtolerance="10"
     guidetolerance="10"
     inkscape:pageopacity="0"
     inkscape:pageshadow="2"
     inkscape:window-width="1280"
     inkscape:window-height="956"
     id="namedview31"
     showgrid="false"
     inkscape:zoom="1.5847107"
     inkscape:cx="242"
     inkscape:cy="142"
     inkscape:window-x="0"
     inkscape:window-y="26"
     inkscape:window-maximized="1"
     inkscape:current-layer="g37" /><g
     id="g37"
     inkscape:groupmode="layer"
     inkscape:label="Копия logoVucaViaNew"
     transform="matrix(1.3333333,0,0,-1.3333333,0,284)"><g
       id="g39"
       transform="translate(107.4644,5.9307)"><path
         d="m 0,0 h -18.621 l -18.255,63.256 h 15.791 L -9.037,11.684 2.282,63.256 h 15.335 z"
         style="fill:#c21443;fill-opacity:1;fill-rule:nonzero;stroke:none"
         id="path41"
         inkscape:connector-curvature="0" /></g><g
       id="g51"
       transform="translate(183.6836,26.9248)"><path
         d="m 0,0 c 0,-12.779 -8.215,-22.546 -24.736,-22.546 -16.522,0 -24.645,9.219 -24.645,22.546 v 42.262 h 14.969 V 0.639 c 0,-8.124 2.921,-12.049 9.676,-12.049 6.845,0 9.766,3.925 9.766,12.049 V 42.262 H 0 Z"
         style="fill:#c21443;fill-opacity:1;fill-rule:nonzero;stroke:none"
         id="path53"
         inkscape:connector-curvature="0" /></g><g
       id="g55"
       transform="translate(243.3818,63.8008)"><path
         d="m 0,0 -7.12,-8.489 c -3.56,2.739 -7.119,4.382 -11.409,4.382 -8.124,0 -13.784,-6.481 -13.784,-21.998 0,-15.244 5.569,-21.724 13.966,-21.724 5.021,0 8.671,2.282 12.414,5.111 l 6.663,-8.58 c -4.199,-4.199 -11.044,-8.124 -19.807,-8.124 -17.343,0 -28.936,11.684 -28.936,33.317 0,21.176 12.324,33.042 28.753,33.042 C -11.045,6.937 -5.294,4.473 0,0"
         style="fill:#c21443;fill-opacity:1;fill-rule:nonzero;stroke:none"
         id="path57"
         inkscape:connector-curvature="0" /></g><g
       id="g59"
       transform="translate(285.5557,30.3931)"><path
         d="M 0,0 -6.664,27.931 -13.327,0 Z m 2.556,-10.862 h -18.439 l -3.194,-13.6 h -15.518 l 19.077,63.255 H 2.646 L 21.724,-24.462 H 5.842 Z"
         style="fill:#c21443;fill-opacity:1;fill-rule:nonzero;stroke:none"
         id="path61"
         inkscape:connector-curvature="0" /></g><g
       id="g63"
       transform="translate(167.6196,109.335)"><path
         d="m 0,0 h -9.984 l -9.13,28.351 h 9.183 L -4.912,6.407 0.32,28.351 h 8.597 z"
         style="fill:#c21443;fill-opacity:1;fill-rule:nonzero;stroke:none"
         id="path65"
         inkscape:connector-curvature="0" /></g><path
       d="m 187.96,109.335 h -8.436 v 28.351 h 8.436 z m 0.747,38.495 c 0,-2.724 -2.082,-4.806 -5.019,-4.806 -2.936,0 -4.964,2.082 -4.964,4.806 0,2.722 2.028,4.805 4.964,4.805 2.937,0 5.019,-2.083 5.019,-4.805"
       style="fill:#c21443;fill-opacity:1;fill-rule:nonzero;stroke:none"
       id="path67"
       inkscape:connector-curvature="0" /><g
       id="g69"
       transform="translate(208.835,117.1836)"><path
         d="m 0,0 v 5.019 h -2.082 c -3.845,0 -5.713,-1.335 -5.713,-4.165 0,-2.242 1.228,-3.577 3.311,-3.577 1.974,0 3.469,1.015 4.484,2.723 M 10.197,-3.097 8.436,-8.596 c -3.364,0.267 -5.553,1.281 -6.834,4.111 -2.029,-3.15 -5.179,-4.271 -8.542,-4.271 -5.661,0 -9.238,3.684 -9.238,8.862 0,6.194 4.699,9.558 13.295,9.558 H 0 v 1.228 c 0,3.363 -1.335,4.378 -4.805,4.378 -1.815,0 -4.591,-0.535 -7.422,-1.496 l -1.921,5.553 c 3.577,1.335 7.474,2.082 10.677,2.082 8.223,0 11.746,-3.47 11.746,-10.037 V 0.374 c 0,-2.189 0.588,-2.99 1.922,-3.471"
         style="fill:#c21443;fill-opacity:1;fill-rule:nonzero;stroke:none"
         id="path71"
         inkscape:connector-curvature="0" /></g><g
       id="g73"
       transform="translate(60.1206,39.5928)"><path
         d="M 0,0 H -46.731 L 13.739,154.446 39.011,94.84 53.509,127.207 79.658,52.299 h 90.707 l 25.877,82.535 17.161,-39.77 19.068,72.184 L 297.299,0 h -43.13"
         style="fill:none;stroke:#c21443;stroke-width:8.04599953;stroke-linecap:butt;stroke-linejoin:bevel;stroke-miterlimit:10;stroke-dasharray:none;stroke-opacity:1"
         id="path75"
         inkscape:connector-curvature="0" /></g></g></svg>